<svg width="1440" height="885" viewBox="0 0 1440 885" fill="none" xmlns="http://www.w3.org/2000/svg">
<rect width="1440" height="885" fill="#FFF2E5"/>
<g clip-path="url(#clip0_49_487)">
<line x1="109.871" y1="703.669" x2="207.499" y2="606.042" stroke="white" stroke-width="5.65957"/>
<line x1="132.51" y1="703.669" x2="230.137" y2="606.042" stroke="white" stroke-width="5.65957"/>
<line x1="132.51" y1="728.43" x2="230.137" y2="630.802" stroke="white" stroke-width="5.65957"/>
<line x1="132.51" y1="753.19" x2="259.143" y2="626.557" stroke="white" stroke-width="5.65957"/>
<line x1="132.51" y1="777.951" x2="280.366" y2="630.095" stroke="white" stroke-width="5.65957"/>
<line x1="132.51" y1="802.712" x2="280.366" y2="654.856" stroke="white" stroke-width="5.65957"/>
<line x1="132.51" y1="827.472" x2="280.366" y2="679.616" stroke="white" stroke-width="5.65957"/>
<line x1="132.51" y1="852.233" x2="280.366" y2="704.377" stroke="white" stroke-width="5.65957"/>
<line x1="132.51" y1="876.994" x2="280.366" y2="729.137" stroke="white" stroke-width="5.65957"/>
</g>
<g clip-path="url(#clip1_49_487)">
<circle cx="1139.64" cy="113.641" r="3.64108" fill="#C4C4C4"/>
<circle cx="1139.64" cy="141.152" r="3.64108" fill="#C4C4C4"/>
<circle cx="1139.64" cy="168.662" r="3.64108" fill="#C4C4C4"/>
<circle cx="1139.64" cy="196.172" r="3.64108" fill="#C4C4C4"/>
<circle cx="1139.64" cy="223.683" r="3.64108" fill="#C4C4C4"/>
<circle cx="1139.64" cy="251.193" r="3.64108" fill="#C4C4C4"/>
<circle cx="1139.64" cy="278.703" r="3.64108" fill="#C4C4C4"/>
<circle cx="1163.11" cy="113.641" r="3.64108" fill="#C4C4C4"/>
<circle cx="1163.11" cy="141.152" r="3.64108" fill="#C4C4C4"/>
<circle cx="1163.11" cy="168.662" r="3.64108" fill="#C4C4C4"/>
<circle cx="1163.11" cy="196.172" r="3.64108" fill="#C4C4C4"/>
<circle cx="1163.11" cy="223.683" r="3.64108" fill="#C4C4C4"/>
<circle cx="1163.11" cy="251.193" r="3.64108" fill="#C4C4C4"/>
<circle cx="1163.11" cy="278.703" r="3.64108" fill="#C4C4C4"/>
<circle cx="1186.57" cy="113.641" r="3.64108" fill="#C4C4C4"/>
<circle cx="1186.57" cy="141.152" r="3.64108" fill="#C4C4C4"/>
<circle cx="1186.57" cy="168.662" r="3.64108" fill="#C4C4C4"/>
<circle cx="1186.57" cy="196.172" r="3.64108" fill="#C4C4C4"/>
<circle cx="1186.57" cy="223.683" r="3.64108" fill="#C4C4C4"/>
<circle cx="1186.57" cy="251.193" r="3.64108" fill="#C4C4C4"/>
<circle cx="1186.57" cy="278.703" r="3.64108" fill="#C4C4C4"/>
<circle cx="1210.04" cy="113.641" r="3.64108" fill="#C4C4C4"/>
<circle cx="1210.04" cy="141.152" r="3.64108" fill="#C4C4C4"/>
<circle cx="1210.04" cy="168.662" r="3.64108" fill="#C4C4C4"/>
<circle cx="1210.04" cy="196.172" r="3.64108" fill="#C4C4C4"/>
<circle cx="1210.04" cy="223.683" r="3.64108" fill="#C4C4C4"/>
<circle cx="1210.04" cy="251.193" r="3.64108" fill="#C4C4C4"/>
<circle cx="1210.04" cy="278.703" r="3.64108" fill="#C4C4C4"/>
<circle cx="1233.5" cy="113.641" r="3.64108" fill="#C4C4C4"/>
<circle cx="1233.5" cy="141.152" r="3.64108" fill="#C4C4C4"/>
<circle cx="1233.5" cy="168.662" r="3.64108" fill="#C4C4C4"/>
<circle cx="1233.5" cy="196.172" r="3.64108" fill="#C4C4C4"/>
<circle cx="1233.5" cy="223.683" r="3.64108" fill="#C4C4C4"/>
<circle cx="1233.5" cy="251.193" r="3.64108" fill="#C4C4C4"/>
<circle cx="1233.5" cy="278.703" r="3.64108" fill="#C4C4C4"/>
<circle cx="1256.96" cy="113.641" r="3.64108" fill="#C4C4C4"/>
<circle cx="1256.96" cy="141.152" r="3.64108" fill="#C4C4C4"/>
<circle cx="1256.96" cy="168.662" r="3.64108" fill="#C4C4C4"/>
<circle cx="1256.96" cy="196.172" r="3.64108" fill="#C4C4C4"/>
<circle cx="1256.96" cy="223.683" r="3.64108" fill="#C4C4C4"/>
<circle cx="1256.96" cy="251.193" r="3.64108" fill="#C4C4C4"/>
<circle cx="1256.96" cy="278.703" r="3.64108" fill="#C4C4C4"/>
<circle cx="1280.43" cy="113.641" r="3.64108" fill="#C4C4C4"/>
<circle cx="1280.43" cy="141.152" r="3.64108" fill="#C4C4C4"/>
<circle cx="1280.43" cy="168.662" r="3.64108" fill="#C4C4C4"/>
<circle cx="1280.43" cy="196.172" r="3.64108" fill="#C4C4C4"/>
<circle cx="1280.43" cy="223.683" r="3.64108" fill="#C4C4C4"/>
<circle cx="1280.43" cy="251.193" r="3.64108" fill="#C4C4C4"/>
<circle cx="1280.43" cy="278.703" r="3.64108" fill="#C4C4C4"/>
<circle cx="1303.89" cy="113.641" r="3.64108" fill="#C4C4C4"/>
<circle cx="1303.89" cy="141.152" r="3.64108" fill="#C4C4C4"/>
<circle cx="1303.89" cy="168.662" r="3.64108" fill="#C4C4C4"/>
<circle cx="1303.89" cy="196.172" r="3.64108" fill="#C4C4C4"/>
<circle cx="1303.89" cy="223.683" r="3.64108" fill="#C4C4C4"/>
<circle cx="1303.89" cy="251.193" r="3.64108" fill="#C4C4C4"/>
<circle cx="1303.89" cy="278.703" r="3.64108" fill="#C4C4C4"/>
<circle cx="1327.36" cy="113.641" r="3.64108" fill="#C4C4C4"/>
<circle cx="1327.36" cy="141.152" r="3.64108" fill="#C4C4C4"/>
<circle cx="1327.36" cy="168.662" r="3.64108" fill="#C4C4C4"/>
<circle cx="1327.36" cy="196.172" r="3.64108" fill="#C4C4C4"/>
<circle cx="1327.36" cy="223.683" r="3.64108" fill="#C4C4C4"/>
<circle cx="1327.36" cy="251.193" r="3.64108" fill="#C4C4C4"/>
<circle cx="1327.36" cy="278.703" r="3.64108" fill="#C4C4C4"/>
</g>
<defs>
<clipPath id="clip0_49_487">
<rect width="133" height="133" fill="white" transform="translate(143 642)"/>
</clipPath>
<clipPath id="clip1_49_487">
<rect x="1136" y="110" width="195" height="172.344" rx="86.1722" fill="white"/>
</clipPath>
</defs>
</svg>
