<svg width="1253" height="410" viewBox="0 0 1253 410" fill="none" xmlns="http://www.w3.org/2000/svg">
<circle cx="3.00622" cy="270.006" r="3.00622" fill="#C4C4C4"/>
<circle cx="3.00622" cy="292.72" r="3.00622" fill="#C4C4C4"/>
<circle cx="3.00622" cy="315.434" r="3.00622" fill="#C4C4C4"/>
<circle cx="3.00622" cy="338.147" r="3.00622" fill="#C4C4C4"/>
<circle cx="3.00622" cy="360.861" r="3.00622" fill="#C4C4C4"/>
<circle cx="3.00622" cy="383.575" r="3.00622" fill="#C4C4C4"/>
<circle cx="3.00622" cy="406.288" r="3.00622" fill="#C4C4C4"/>
<circle cx="22.3796" cy="270.006" r="3.00622" fill="#C4C4C4"/>
<circle cx="22.3796" cy="292.72" r="3.00622" fill="#C4C4C4"/>
<circle cx="22.3796" cy="315.434" r="3.00622" fill="#C4C4C4"/>
<circle cx="22.3796" cy="338.147" r="3.00622" fill="#C4C4C4"/>
<circle cx="22.3796" cy="360.861" r="3.00622" fill="#C4C4C4"/>
<circle cx="22.3796" cy="383.575" r="3.00622" fill="#C4C4C4"/>
<circle cx="22.3796" cy="406.288" r="3.00622" fill="#C4C4C4"/>
<circle cx="41.7531" cy="270.006" r="3.00622" fill="#C4C4C4"/>
<circle cx="41.7531" cy="292.72" r="3.00622" fill="#C4C4C4"/>
<circle cx="41.7531" cy="315.434" r="3.00622" fill="#C4C4C4"/>
<circle cx="41.7531" cy="338.147" r="3.00622" fill="#C4C4C4"/>
<circle cx="41.7531" cy="360.861" r="3.00622" fill="#C4C4C4"/>
<circle cx="41.7531" cy="383.575" r="3.00622" fill="#C4C4C4"/>
<circle cx="41.7531" cy="406.288" r="3.00622" fill="#C4C4C4"/>
<circle cx="61.1266" cy="270.006" r="3.00622" fill="#C4C4C4"/>
<circle cx="61.1266" cy="292.72" r="3.00622" fill="#C4C4C4"/>
<circle cx="61.1266" cy="315.434" r="3.00622" fill="#C4C4C4"/>
<circle cx="61.1266" cy="338.147" r="3.00622" fill="#C4C4C4"/>
<circle cx="61.1266" cy="360.861" r="3.00622" fill="#C4C4C4"/>
<circle cx="61.1266" cy="383.575" r="3.00622" fill="#C4C4C4"/>
<circle cx="61.1266" cy="406.288" r="3.00622" fill="#C4C4C4"/>
<circle cx="80.5" cy="270.006" r="3.00622" fill="#C4C4C4"/>
<circle cx="80.5" cy="292.72" r="3.00622" fill="#C4C4C4"/>
<circle cx="80.5" cy="315.434" r="3.00622" fill="#C4C4C4"/>
<circle cx="80.5" cy="338.147" r="3.00622" fill="#C4C4C4"/>
<circle cx="80.5" cy="360.861" r="3.00622" fill="#C4C4C4"/>
<circle cx="80.5" cy="383.575" r="3.00622" fill="#C4C4C4"/>
<circle cx="80.5" cy="406.288" r="3.00622" fill="#C4C4C4"/>
<circle cx="99.8734" cy="270.006" r="3.00622" fill="#C4C4C4"/>
<circle cx="99.8734" cy="292.72" r="3.00622" fill="#C4C4C4"/>
<circle cx="99.8734" cy="315.434" r="3.00622" fill="#C4C4C4"/>
<circle cx="99.8734" cy="338.147" r="3.00622" fill="#C4C4C4"/>
<circle cx="99.8734" cy="360.861" r="3.00622" fill="#C4C4C4"/>
<circle cx="99.8734" cy="383.575" r="3.00622" fill="#C4C4C4"/>
<circle cx="99.8734" cy="406.288" r="3.00622" fill="#C4C4C4"/>
<circle cx="119.247" cy="270.006" r="3.00622" fill="#C4C4C4"/>
<circle cx="119.247" cy="292.72" r="3.00622" fill="#C4C4C4"/>
<circle cx="119.247" cy="315.434" r="3.00622" fill="#C4C4C4"/>
<circle cx="119.247" cy="338.147" r="3.00622" fill="#C4C4C4"/>
<circle cx="119.247" cy="360.861" r="3.00622" fill="#C4C4C4"/>
<circle cx="119.247" cy="383.575" r="3.00622" fill="#C4C4C4"/>
<circle cx="119.247" cy="406.288" r="3.00622" fill="#C4C4C4"/>
<circle cx="138.62" cy="270.006" r="3.00622" fill="#C4C4C4"/>
<circle cx="138.62" cy="292.72" r="3.00622" fill="#C4C4C4"/>
<circle cx="138.62" cy="315.434" r="3.00622" fill="#C4C4C4"/>
<circle cx="138.62" cy="338.147" r="3.00622" fill="#C4C4C4"/>
<circle cx="138.62" cy="360.861" r="3.00622" fill="#C4C4C4"/>
<circle cx="138.62" cy="383.575" r="3.00622" fill="#C4C4C4"/>
<circle cx="138.62" cy="406.288" r="3.00622" fill="#C4C4C4"/>
<circle cx="157.994" cy="270.006" r="3.00622" fill="#C4C4C4"/>
<circle cx="157.994" cy="292.72" r="3.00622" fill="#C4C4C4"/>
<circle cx="157.994" cy="315.434" r="3.00622" fill="#C4C4C4"/>
<circle cx="157.994" cy="338.147" r="3.00622" fill="#C4C4C4"/>
<circle cx="157.994" cy="360.861" r="3.00622" fill="#C4C4C4"/>
<circle cx="157.994" cy="383.575" r="3.00622" fill="#C4C4C4"/>
<circle cx="157.994" cy="406.288" r="3.00622" fill="#C4C4C4"/>
<g clip-path="url(#clip0_39_400)">
<line x1="1018.17" y1="87.1716" x2="1156.17" y2="-50.8284" stroke="#FFF2E5" stroke-width="8"/>
<line x1="1050.17" y1="87.1716" x2="1188.17" y2="-50.8284" stroke="#FFF2E5" stroke-width="8"/>
<line x1="1050.17" y1="122.172" x2="1188.17" y2="-15.8284" stroke="#FFF2E5" stroke-width="8"/>
<line x1="1050.17" y1="157.172" x2="1229.17" y2="-21.8284" stroke="#FFF2E5" stroke-width="8"/>
<line x1="1050.17" y1="192.172" x2="1259.17" y2="-16.8284" stroke="#FFF2E5" stroke-width="8"/>
<line x1="1050.17" y1="227.172" x2="1259.17" y2="18.1716" stroke="#FFF2E5" stroke-width="8"/>
<line x1="1050.17" y1="262.172" x2="1259.17" y2="53.1716" stroke="#FFF2E5" stroke-width="8"/>
<line x1="1050.17" y1="297.172" x2="1259.17" y2="88.1716" stroke="#FFF2E5" stroke-width="8"/>
<line x1="1050.17" y1="332.172" x2="1259.17" y2="123.172" stroke="#FFF2E5" stroke-width="8"/>
</g>
<defs>
<clipPath id="clip0_39_400">
<rect width="188" height="188" fill="white" transform="translate(1065)"/>
</clipPath>
</defs>
</svg>
