<svg width="280" height="43" viewBox="0 0 280 43" fill="none" xmlns="http://www.w3.org/2000/svg">
<rect width="280" height="43" rx="21.5" fill="#FDCB6E"/>
<path d="M48.2306 27.1565V25.3725L52.3992 21.5128C52.7537 21.1697 53.051 20.8609 53.2912 20.5864C53.5352 20.3119 53.72 20.0432 53.8458 19.7802C53.9716 19.5133 54.0345 19.2255 54.0345 18.9167C54.0345 18.5736 53.9564 18.2782 53.8001 18.0304C53.6438 17.7788 53.4303 17.5863 53.1597 17.4529C52.889 17.3156 52.5821 17.247 52.239 17.247C51.8807 17.247 51.5681 17.3195 51.3013 17.4643C51.0344 17.6092 50.8286 17.8169 50.6837 18.0876C50.5389 18.3583 50.4664 18.6804 50.4664 19.054H48.1163C48.1163 18.2877 48.2897 17.6225 48.6366 17.0583C48.9835 16.4941 49.4696 16.0577 50.0948 15.7489C50.7199 15.4401 51.4404 15.2857 52.2562 15.2857C53.0949 15.2857 53.8249 15.4344 54.4462 15.7317C55.0714 16.0253 55.5575 16.4332 55.9044 16.9554C56.2513 17.4777 56.4247 18.0762 56.4247 18.7509C56.4247 19.1931 56.337 19.6296 56.1617 20.0603C55.9901 20.4911 55.6833 20.9695 55.2411 21.4956C54.7989 22.0179 54.1756 22.6449 53.3712 23.3769L51.6615 25.0523V25.1323H56.5791V27.1565H48.2306ZM62.8292 27.3166C62.0211 27.3166 61.3006 27.168 60.6678 26.8706C60.0388 26.5733 59.5394 26.1635 59.1696 25.6412C58.7999 25.119 58.6074 24.5205 58.5921 23.8457H60.9937C61.0204 24.2994 61.211 24.6673 61.5655 24.9493C61.9201 25.2314 62.3413 25.3725 62.8292 25.3725C63.2181 25.3725 63.5612 25.2867 63.8585 25.1152C64.1597 24.9398 64.3941 24.6977 64.5618 24.389C64.7334 24.0764 64.8191 23.718 64.8191 23.314C64.8191 22.9023 64.7315 22.5401 64.5561 22.2275C64.3846 21.9149 64.1463 21.671 63.8413 21.4956C63.5364 21.3202 63.1876 21.2307 62.7949 21.2268C62.4518 21.2268 62.1183 21.2974 61.7943 21.4384C61.474 21.5795 61.2243 21.772 61.0452 22.0159L58.8437 21.6214L59.3984 15.4458H66.5575V17.47H61.4397L61.1367 20.4034H61.2053C61.4111 20.1137 61.7218 19.8736 62.1373 19.683C62.5529 19.4923 63.0179 19.397 63.5326 19.397C64.2378 19.397 64.8668 19.5629 65.4195 19.8945C65.9723 20.2262 66.4088 20.6817 66.729 21.2612C67.0492 21.8368 67.2074 22.5001 67.2036 23.2511C67.2074 24.0402 67.0244 24.7416 66.6547 25.3553C66.2887 25.9653 65.776 26.4456 65.1165 26.7963C64.4608 27.1432 63.6984 27.3166 62.8292 27.3166ZM75.5194 24.9608V24.3432C75.5194 23.8743 75.6185 23.4436 75.8167 23.0509C76.0188 22.6545 76.3104 22.3381 76.6916 22.1017C77.0766 21.8616 77.5455 21.7415 78.0983 21.7415C78.6587 21.7415 79.1294 21.8597 79.5107 22.096C79.8957 22.3324 80.1854 22.6488 80.3798 23.0452C80.578 23.4379 80.6772 23.8705 80.6772 24.3432V24.9608C80.6772 25.4297 80.578 25.8623 80.3798 26.2588C80.1816 26.6514 79.89 26.9659 79.5049 27.2023C79.1199 27.4424 78.651 27.5625 78.0983 27.5625C77.5379 27.5625 77.0671 27.4424 76.6859 27.2023C76.3047 26.9659 76.015 26.6514 75.8167 26.2588C75.6185 25.8623 75.5194 25.4297 75.5194 24.9608ZM77.1834 24.3432V24.9608C77.1834 25.2314 77.2482 25.4868 77.3778 25.727C77.5112 25.9672 77.7514 26.0873 78.0983 26.0873C78.4452 26.0873 78.6815 25.9691 78.8073 25.7327C78.9369 25.4964 79.0017 25.2391 79.0017 24.9608V24.3432C79.0017 24.0649 78.9407 23.8057 78.8188 23.5656C78.6968 23.3254 78.4566 23.2053 78.0983 23.2053C77.7552 23.2053 77.5169 23.3254 77.3835 23.5656C77.2501 23.8057 77.1834 24.0649 77.1834 24.3432ZM69.5097 18.2591V17.6416C69.5097 17.1689 69.6107 16.7362 69.8127 16.3436C70.0148 15.9471 70.3064 15.6307 70.6876 15.3944C71.0726 15.158 71.5377 15.0398 72.0828 15.0398C72.647 15.0398 73.1197 15.158 73.5009 15.3944C73.8821 15.6307 74.1718 15.9471 74.3701 16.3436C74.5683 16.7362 74.6674 17.1689 74.6674 17.6416V18.2591C74.6674 18.7318 74.5664 19.1645 74.3643 19.5572C74.1661 19.9498 73.8745 20.2643 73.4895 20.5006C73.1083 20.7332 72.6394 20.8495 72.0828 20.8495C71.5262 20.8495 71.0555 20.7313 70.6704 20.4949C70.2892 20.2548 69.9995 19.9403 69.8013 19.5514C69.6069 19.1588 69.5097 18.728 69.5097 18.2591ZM71.1851 17.6416V18.2591C71.1851 18.5374 71.2499 18.7947 71.3795 19.0311C71.5129 19.2674 71.7473 19.3856 72.0828 19.3856C72.4335 19.3856 72.6718 19.2674 72.7976 19.0311C72.9272 18.7947 72.992 18.5374 72.992 18.2591V17.6416C72.992 17.3633 72.931 17.1041 72.809 16.8639C72.687 16.6238 72.445 16.5037 72.0828 16.5037C71.7435 16.5037 71.5091 16.6257 71.3795 16.8696C71.2499 17.1136 71.1851 17.3709 71.1851 17.6416ZM70.2644 27.1565L78.3156 15.4458H79.8137L71.7626 27.1565H70.2644ZM91.0231 27.3281C90.1349 27.3281 89.3668 27.1394 88.7187 26.762C88.0745 26.3808 87.577 25.8509 87.2263 25.1724C86.8756 24.49 86.7002 23.699 86.7002 22.7993C86.7002 21.8921 86.8756 21.0991 87.2263 20.4206C87.577 19.7382 88.0745 19.2083 88.7187 18.831C89.3668 18.4497 90.1349 18.2591 91.0231 18.2591C91.9113 18.2591 92.6776 18.4497 93.3218 18.831C93.9699 19.2083 94.4692 19.7382 94.82 20.4206C95.1707 21.0991 95.346 21.8921 95.346 22.7993C95.346 23.699 95.1707 24.49 94.82 25.1724C94.4692 25.8509 93.9699 26.3808 93.3218 26.762C92.6776 27.1394 91.9113 27.3281 91.0231 27.3281ZM91.0346 25.4411C91.4386 25.4411 91.776 25.3267 92.0467 25.098C92.3173 24.8655 92.5213 24.5491 92.6585 24.1488C92.7995 23.7485 92.8701 23.293 92.8701 22.7822C92.8701 22.2714 92.7995 21.8158 92.6585 21.4155C92.5213 21.0153 92.3173 20.6989 92.0467 20.4663C91.776 20.2338 91.4386 20.1175 91.0346 20.1175C90.6267 20.1175 90.2836 20.2338 90.0053 20.4663C89.7308 20.6989 89.5231 21.0153 89.382 21.4155C89.2448 21.8158 89.1762 22.2714 89.1762 22.7822C89.1762 23.293 89.2448 23.7485 89.382 24.1488C89.5231 24.5491 89.7308 24.8655 90.0053 25.098C90.2836 25.3267 90.6267 25.4411 91.0346 25.4411ZM101.832 18.3735V20.2033H96.4112V18.3735H101.832ZM97.6521 27.1565V17.7388C97.6521 17.1022 97.776 16.5742 98.0237 16.1549C98.2753 15.7355 98.6184 15.421 99.053 15.2114C99.4876 15.0017 99.9813 14.8969 100.534 14.8969C100.908 14.8969 101.249 14.9255 101.558 14.9827C101.87 15.0398 102.103 15.0913 102.255 15.137L101.821 16.9668C101.725 16.9363 101.607 16.9078 101.466 16.8811C101.329 16.8544 101.188 16.841 101.043 16.841C100.685 16.841 100.435 16.9249 100.294 17.0926C100.153 17.2566 100.082 17.4872 100.082 17.7845V27.1565H97.6521ZM108.222 18.3735V20.2033H102.801V18.3735H108.222ZM104.042 27.1565V17.7388C104.042 17.1022 104.166 16.5742 104.414 16.1549C104.666 15.7355 105.009 15.421 105.443 15.2114C105.878 15.0017 106.371 14.8969 106.924 14.8969C107.298 14.8969 107.639 14.9255 107.948 14.9827C108.26 15.0398 108.493 15.0913 108.645 15.137L108.211 16.9668C108.116 16.9363 107.997 16.9078 107.856 16.8811C107.719 16.8544 107.578 16.841 107.433 16.841C107.075 16.841 106.825 16.9249 106.684 17.0926C106.543 17.2566 106.472 17.4872 106.472 17.7845V27.1565H104.042ZM115.299 30.4502C114.99 30.4502 114.7 30.4254 114.43 30.3758C114.163 30.3301 113.942 30.271 113.766 30.1986L114.315 28.3802C114.601 28.4679 114.859 28.5155 115.087 28.5232C115.32 28.5308 115.52 28.4774 115.688 28.3631C115.859 28.2487 115.998 28.0543 116.105 27.7798L116.248 27.4081L113.097 18.3735H115.659L117.477 24.8235H117.569L119.404 18.3735H121.983L118.57 28.1058C118.406 28.5784 118.183 28.9902 117.901 29.3409C117.622 29.6954 117.27 29.968 116.843 30.1586C116.416 30.353 115.901 30.4502 115.299 30.4502ZM127.094 27.3281C126.206 27.3281 125.438 27.1394 124.79 26.762C124.146 26.3808 123.648 25.8509 123.297 25.1724C122.947 24.49 122.771 23.699 122.771 22.7993C122.771 21.8921 122.947 21.0991 123.297 20.4206C123.648 19.7382 124.146 19.2083 124.79 18.831C125.438 18.4497 126.206 18.2591 127.094 18.2591C127.982 18.2591 128.749 18.4497 129.393 18.831C130.041 19.2083 130.54 19.7382 130.891 20.4206C131.242 21.0991 131.417 21.8921 131.417 22.7993C131.417 23.699 131.242 24.49 130.891 25.1724C130.54 25.8509 130.041 26.3808 129.393 26.762C128.749 27.1394 127.982 27.3281 127.094 27.3281ZM127.106 25.4411C127.51 25.4411 127.847 25.3267 128.118 25.098C128.388 24.8655 128.592 24.5491 128.73 24.1488C128.871 23.7485 128.941 23.293 128.941 22.7822C128.941 22.2714 128.871 21.8158 128.73 21.4155C128.592 21.0153 128.388 20.6989 128.118 20.4663C127.847 20.2338 127.51 20.1175 127.106 20.1175C126.698 20.1175 126.355 20.2338 126.076 20.4663C125.802 20.6989 125.594 21.0153 125.453 21.4155C125.316 21.8158 125.247 22.2714 125.247 22.7822C125.247 23.293 125.316 23.7485 125.453 24.1488C125.594 24.5491 125.802 24.8655 126.076 25.098C126.355 25.3267 126.698 25.4411 127.106 25.4411ZM138.812 23.4169V18.3735H141.248V27.1565H138.909V25.5612H138.818C138.62 26.0758 138.29 26.4894 137.829 26.802C137.371 27.1146 136.813 27.2709 136.153 27.2709C135.566 27.2709 135.05 27.1375 134.604 26.8706C134.158 26.6038 133.809 26.2245 133.557 25.7327C133.31 25.241 133.184 24.652 133.18 23.9658V18.3735H135.616V23.5313C135.62 24.0497 135.759 24.4595 136.033 24.7606C136.308 25.0618 136.676 25.2124 137.137 25.2124C137.43 25.2124 137.705 25.1457 137.96 25.0122C138.216 24.875 138.422 24.673 138.578 24.4061C138.738 24.1393 138.816 23.8095 138.812 23.4169ZM143.376 27.1565V18.3735H145.737V19.906H145.829C145.989 19.3608 146.257 18.9491 146.635 18.6708C147.012 18.3888 147.447 18.2477 147.939 18.2477C148.061 18.2477 148.192 18.2553 148.333 18.2706C148.474 18.2858 148.598 18.3068 148.705 18.3335V20.4949C148.59 20.4606 148.432 20.4301 148.23 20.4034C148.028 20.3768 147.843 20.3634 147.676 20.3634C147.317 20.3634 146.997 20.4416 146.715 20.5979C146.437 20.7503 146.216 20.9638 146.052 21.2383C145.891 21.5128 145.811 21.8292 145.811 22.1875V27.1565H143.376ZM158.772 18.3735V20.2033H153.351V18.3735H158.772ZM154.592 27.1565V17.7388C154.592 17.1022 154.716 16.5742 154.964 16.1549C155.215 15.7355 155.558 15.421 155.993 15.2114C156.428 15.0017 156.921 14.8969 157.474 14.8969C157.848 14.8969 158.189 14.9255 158.498 14.9827C158.81 15.0398 159.043 15.0913 159.195 15.137L158.761 16.9668C158.665 16.9363 158.547 16.9078 158.406 16.8811C158.269 16.8544 158.128 16.841 157.983 16.841C157.625 16.841 157.375 16.9249 157.234 17.0926C157.093 17.2566 157.022 17.4872 157.022 17.7845V27.1565H154.592ZM160.439 27.1565V18.3735H162.875V27.1565H160.439ZM161.663 17.2413C161.301 17.2413 160.99 17.1212 160.731 16.8811C160.475 16.6371 160.348 16.3455 160.348 16.0062C160.348 15.6707 160.475 15.3829 160.731 15.1428C160.99 14.8988 161.301 14.7768 161.663 14.7768C162.025 14.7768 162.334 14.8988 162.589 15.1428C162.848 15.3829 162.978 15.6707 162.978 16.0062C162.978 16.3455 162.848 16.6371 162.589 16.8811C162.334 17.1212 162.025 17.2413 161.663 17.2413ZM165.005 27.1565V18.3735H167.367V19.906H167.458C167.618 19.3608 167.887 18.9491 168.265 18.6708C168.642 18.3888 169.077 18.2477 169.568 18.2477C169.69 18.2477 169.822 18.2553 169.963 18.2706C170.104 18.2858 170.228 18.3068 170.335 18.3335V20.4949C170.22 20.4606 170.062 20.4301 169.86 20.4034C169.658 20.3768 169.473 20.3634 169.305 20.3634C168.947 20.3634 168.627 20.4416 168.345 20.5979C168.066 20.7503 167.845 20.9638 167.681 21.2383C167.521 21.5128 167.441 21.8292 167.441 22.1875V27.1565H165.005ZM179.081 20.878L176.851 21.0153C176.812 20.8247 176.73 20.6531 176.605 20.5006C176.479 20.3443 176.313 20.2205 176.107 20.129C175.905 20.0337 175.663 19.986 175.381 19.986C175.004 19.986 174.685 20.0661 174.426 20.2262C174.167 20.3825 174.037 20.5921 174.037 20.8552C174.037 21.0648 174.121 21.2421 174.289 21.387C174.457 21.5318 174.744 21.6481 175.152 21.7358L176.742 22.056C177.596 22.2313 178.232 22.5134 178.652 22.9023C179.071 23.2911 179.281 23.8019 179.281 24.4347C179.281 25.0103 179.111 25.5154 178.772 25.95C178.436 26.3846 177.975 26.7239 177.388 26.9678C176.805 27.208 176.132 27.3281 175.37 27.3281C174.207 27.3281 173.281 27.086 172.591 26.6019C171.904 26.1139 171.502 25.4506 171.384 24.612L173.78 24.4862C173.852 24.8407 174.028 25.1114 174.306 25.2982C174.584 25.4811 174.941 25.5726 175.375 25.5726C175.802 25.5726 176.145 25.4907 176.405 25.3267C176.668 25.159 176.801 24.9436 176.805 24.6806C176.801 24.4595 176.708 24.2784 176.525 24.1374C176.342 23.9925 176.06 23.882 175.678 23.8057L174.157 23.5027C173.3 23.3311 172.661 23.0338 172.242 22.6106C171.826 22.1875 171.618 21.6481 171.618 20.9924C171.618 20.4282 171.771 19.9422 172.076 19.5343C172.385 19.1264 172.817 18.8119 173.374 18.5908C173.934 18.3697 174.59 18.2591 175.341 18.2591C176.45 18.2591 177.323 18.4936 177.96 18.9625C178.6 19.4314 178.974 20.0699 179.081 20.878ZM185.665 18.3735V20.2033H180.376V18.3735H185.665ZM181.577 16.2692H184.013V24.4576C184.013 24.6825 184.047 24.8579 184.116 24.9837C184.184 25.1056 184.28 25.1914 184.402 25.241C184.527 25.2905 184.672 25.3153 184.836 25.3153C184.95 25.3153 185.065 25.3058 185.179 25.2867C185.294 25.2638 185.381 25.2467 185.442 25.2353L185.825 27.0479C185.703 27.086 185.532 27.1299 185.311 27.1794C185.09 27.2328 184.821 27.2652 184.504 27.2766C183.917 27.2995 183.403 27.2213 182.961 27.0422C182.522 26.863 182.181 26.5847 181.937 26.2073C181.693 25.8299 181.573 25.3534 181.577 24.7778V16.2692ZM191.337 30.4502V18.3735H193.738V19.8488H193.847C193.954 19.6124 194.108 19.3723 194.31 19.1283C194.516 18.8805 194.783 18.6747 195.111 18.5107C195.442 18.343 195.854 18.2591 196.346 18.2591C196.986 18.2591 197.577 18.4269 198.118 18.7623C198.66 19.094 199.092 19.5953 199.416 20.2662C199.74 20.9333 199.902 21.7701 199.902 22.7765C199.902 23.7562 199.744 24.5834 199.428 25.2581C199.115 25.9291 198.688 26.438 198.147 26.7849C197.609 27.128 197.007 27.2995 196.34 27.2995C195.867 27.2995 195.465 27.2213 195.133 27.0651C194.806 26.9088 194.537 26.7124 194.327 26.4761C194.118 26.2359 193.957 25.9939 193.847 25.7499H193.773V30.4502H191.337ZM193.721 22.765C193.721 23.2873 193.794 23.7428 193.938 24.1317C194.083 24.5205 194.293 24.8235 194.567 25.0408C194.842 25.2543 195.175 25.3611 195.568 25.3611C195.965 25.3611 196.3 25.2524 196.574 25.0351C196.849 24.814 197.057 24.509 197.198 24.1202C197.343 23.7276 197.415 23.2758 197.415 22.765C197.415 22.258 197.344 21.812 197.203 21.427C197.062 21.042 196.855 20.7408 196.58 20.5235C196.306 20.3062 195.968 20.1976 195.568 20.1976C195.172 20.1976 194.836 20.3024 194.562 20.5121C194.291 20.7217 194.083 21.0191 193.938 21.4041C193.794 21.7891 193.721 22.2428 193.721 22.765ZM207.338 23.4169V18.3735H209.774V27.1565H207.435V25.5612H207.343C207.145 26.0758 206.815 26.4894 206.354 26.802C205.897 27.1146 205.338 27.2709 204.679 27.2709C204.092 27.2709 203.575 27.1375 203.129 26.8706C202.683 26.6038 202.334 26.2245 202.083 25.7327C201.835 25.241 201.709 24.652 201.705 23.9658V18.3735H204.141V23.5313C204.145 24.0497 204.284 24.4595 204.559 24.7606C204.833 25.0618 205.201 25.2124 205.662 25.2124C205.956 25.2124 206.23 25.1457 206.486 25.0122C206.741 24.875 206.947 24.673 207.103 24.4061C207.263 24.1393 207.341 23.8095 207.338 23.4169ZM211.901 27.1565V18.3735H214.262V19.906H214.354C214.514 19.3608 214.783 18.9491 215.16 18.6708C215.538 18.3888 215.972 18.2477 216.464 18.2477C216.586 18.2477 216.717 18.2553 216.858 18.2706C217 18.2858 217.123 18.3068 217.23 18.3335V20.4949C217.116 20.4606 216.958 20.4301 216.756 20.4034C216.554 20.3768 216.369 20.3634 216.201 20.3634C215.843 20.3634 215.522 20.4416 215.24 20.5979C214.962 20.7503 214.741 20.9638 214.577 21.2383C214.417 21.5128 214.337 21.8292 214.337 22.1875V27.1565H211.901ZM222.228 27.3281C221.328 27.3281 220.555 27.1375 219.906 26.7563C219.262 26.3713 218.767 25.8376 218.42 25.1552C218.077 24.4728 217.905 23.6875 217.905 22.7993C217.905 21.8997 218.079 21.1106 218.425 20.432C218.776 19.7497 219.274 19.2179 219.918 18.8367C220.562 18.4517 221.328 18.2591 222.217 18.2591C222.983 18.2591 223.654 18.3983 224.229 18.6766C224.805 18.9548 225.261 19.3456 225.596 19.8488C225.931 20.352 226.116 20.9428 226.151 21.6214H223.852C223.787 21.183 223.616 20.8304 223.337 20.5635C223.063 20.2929 222.703 20.1576 222.257 20.1576C221.879 20.1576 221.549 20.2605 221.267 20.4663C220.989 20.6684 220.772 20.9638 220.616 21.3526C220.459 21.7415 220.381 22.2123 220.381 22.765C220.381 23.3254 220.457 23.8019 220.61 24.1946C220.766 24.5872 220.985 24.8864 221.267 25.0923C221.549 25.2982 221.879 25.4011 222.257 25.4011C222.535 25.4011 222.785 25.3439 223.006 25.2295C223.231 25.1152 223.416 24.9493 223.56 24.7321C223.709 24.511 223.806 24.246 223.852 23.9372H226.151C226.113 24.6082 225.93 25.199 225.602 25.7099C225.278 26.2169 224.83 26.6133 224.258 26.8992C223.686 27.1851 223.01 27.3281 222.228 27.3281ZM230.325 22.0788V27.1565H227.889V15.4458H230.257V19.9231H230.359C230.558 19.4047 230.878 18.9987 231.32 18.7052C231.762 18.4078 232.317 18.2591 232.984 18.2591C233.594 18.2591 234.126 18.3926 234.579 18.6594C235.037 18.9224 235.391 19.3017 235.643 19.7973C235.898 20.2891 236.024 20.878 236.02 21.5642V27.1565H233.584V21.9988C233.588 21.4575 233.451 21.0362 233.173 20.7351C232.898 20.4339 232.513 20.2834 232.018 20.2834C231.686 20.2834 231.393 20.3539 231.137 20.4949C230.886 20.636 230.687 20.8418 230.542 21.1125C230.401 21.3793 230.329 21.7015 230.325 22.0788ZM240.621 27.3224C240.06 27.3224 239.561 27.2252 239.123 27.0307C238.684 26.8325 238.337 26.5409 238.082 26.1559C237.83 25.767 237.705 25.2829 237.705 24.7035C237.705 24.2155 237.794 23.8057 237.973 23.4741C238.153 23.1424 238.396 22.8756 238.705 22.6735C239.014 22.4715 239.365 22.319 239.757 22.2161C240.154 22.1132 240.569 22.0407 241.004 21.9988C241.515 21.9454 241.926 21.8959 242.239 21.8501C242.552 21.8006 242.778 21.7281 242.92 21.6328C243.061 21.5375 243.131 21.3965 243.131 21.2097V21.1754C243.131 20.8132 243.017 20.533 242.788 20.3348C242.563 20.1366 242.243 20.0375 241.827 20.0375C241.389 20.0375 241.04 20.1347 240.781 20.3291C240.522 20.5197 240.35 20.7599 240.266 21.0496L238.013 20.8666C238.128 20.3329 238.353 19.8717 238.688 19.4828C239.024 19.0902 239.456 18.789 239.986 18.5794C240.52 18.3659 241.137 18.2591 241.839 18.2591C242.327 18.2591 242.794 18.3163 243.24 18.4307C243.69 18.545 244.088 18.7223 244.435 18.9625C244.786 19.2026 245.062 19.5114 245.264 19.8888C245.466 20.2624 245.567 20.7103 245.567 21.2326V27.1565H243.257V25.9386H243.188C243.047 26.2131 242.859 26.4551 242.622 26.6648C242.386 26.8706 242.102 27.0326 241.77 27.1508C241.439 27.2652 241.055 27.3224 240.621 27.3224ZM241.318 25.6412C241.677 25.6412 241.993 25.5707 242.268 25.4297C242.542 25.2848 242.758 25.0904 242.914 24.8464C243.07 24.6024 243.148 24.3261 243.148 24.0173V23.0852C243.072 23.1348 242.967 23.1805 242.834 23.2225C242.704 23.2606 242.557 23.2968 242.393 23.3311C242.23 23.3616 242.066 23.3902 241.902 23.4169C241.738 23.4398 241.589 23.4607 241.456 23.4798C241.17 23.5217 240.92 23.5884 240.707 23.6799C240.493 23.7714 240.327 23.8953 240.209 24.0516C240.091 24.2041 240.032 24.3947 240.032 24.6234C240.032 24.9551 240.152 25.2086 240.392 25.3839C240.636 25.5555 240.945 25.6412 241.318 25.6412ZM254.944 20.878L252.713 21.0153C252.675 20.8247 252.593 20.6531 252.468 20.5006C252.342 20.3443 252.176 20.2205 251.97 20.129C251.768 20.0337 251.526 19.986 251.244 19.986C250.867 19.986 250.548 20.0661 250.289 20.2262C250.03 20.3825 249.9 20.5921 249.9 20.8552C249.9 21.0648 249.984 21.2421 250.152 21.387C250.319 21.5318 250.607 21.6481 251.015 21.7358L252.605 22.056C253.459 22.2313 254.095 22.5134 254.515 22.9023C254.934 23.2911 255.144 23.8019 255.144 24.4347C255.144 25.0103 254.974 25.5154 254.635 25.95C254.299 26.3846 253.838 26.7239 253.251 26.9678C252.668 27.208 251.995 27.3281 251.232 27.3281C250.07 27.3281 249.143 27.086 248.453 26.6019C247.767 26.1139 247.365 25.4506 247.247 24.612L249.643 24.4862C249.715 24.8407 249.891 25.1114 250.169 25.2982C250.447 25.4811 250.804 25.5726 251.238 25.5726C251.665 25.5726 252.008 25.4907 252.267 25.3267C252.53 25.159 252.664 24.9436 252.668 24.6806C252.664 24.4595 252.571 24.2784 252.388 24.1374C252.205 23.9925 251.922 23.882 251.541 23.8057L250.02 23.5027C249.163 23.3311 248.524 23.0338 248.105 22.6106C247.689 22.1875 247.481 21.6481 247.481 20.9924C247.481 20.4282 247.634 19.9422 247.939 19.5343C248.248 19.1264 248.68 18.8119 249.237 18.5908C249.797 18.3697 250.453 18.2591 251.204 18.2591C252.313 18.2591 253.186 18.4936 253.823 18.9625C254.463 19.4314 254.837 20.0699 254.944 20.878ZM260.859 27.3281C259.956 27.3281 259.178 27.1451 258.526 26.7791C257.878 26.4094 257.379 25.8871 257.028 25.2124C256.677 24.5338 256.502 23.7314 256.502 22.805C256.502 21.9016 256.677 21.1087 257.028 20.4263C257.379 19.7439 257.872 19.2122 258.509 18.831C259.149 18.4497 259.9 18.2591 260.762 18.2591C261.341 18.2591 261.881 18.3525 262.38 18.5393C262.883 18.7223 263.322 18.9987 263.695 19.3685C264.073 19.7382 264.366 20.2033 264.576 20.7637C264.786 21.3202 264.89 21.9721 264.89 22.7193V23.3883H257.474V21.8787H262.597C262.597 21.528 262.521 21.2173 262.369 20.9467C262.216 20.676 262.005 20.4644 261.734 20.3119C261.467 20.1557 261.156 20.0775 260.802 20.0775C260.432 20.0775 260.104 20.1633 259.818 20.3348C259.536 20.5026 259.315 20.7294 259.155 21.0153C258.995 21.2974 258.913 21.6119 258.909 21.9588V23.394C258.909 23.8286 258.989 24.2041 259.149 24.5205C259.313 24.8369 259.544 25.0809 259.841 25.2524C260.139 25.4239 260.491 25.5097 260.899 25.5097C261.17 25.5097 261.418 25.4716 261.643 25.3954C261.867 25.3191 262.06 25.2048 262.22 25.0523C262.38 24.8998 262.502 24.713 262.586 24.4919L264.839 24.6406C264.725 25.1819 264.49 25.6546 264.136 26.0587C263.785 26.4589 263.331 26.7715 262.775 26.9964C262.222 27.2175 261.583 27.3281 260.859 27.3281Z" fill="#2D3436"/>
<path d="M23.2588 24.1533C26.7172 24.1533 29.5208 21.3497 29.5208 17.8913C29.5208 14.433 26.7172 11.6294 23.2588 11.6294C19.8004 11.6294 16.9968 14.433 16.9968 17.8913C16.9968 21.3497 19.8004 24.1533 23.2588 24.1533Z" stroke="#6C5CE7" stroke-width="1.78914" stroke-linecap="round" stroke-linejoin="round"/>
<path d="M19.8684 23.1604L18.7859 31.3099L23.2588 28.6262L27.7316 31.3099L26.6492 23.1514" stroke="#6C5CE7" stroke-width="1.78914" stroke-linecap="round" stroke-linejoin="round"/>
</svg>
