<svg width="32" height="32" viewBox="0 0 32 32" fill="none" xmlns="http://www.w3.org/2000/svg">
<rect width="32" height="32" rx="4" fill="#6C5CE7"/>
<path d="M4.49972 21.7551C4.10597 21.7551 3.7679 21.6159 3.48551 21.3375C3.2071 21.0551 3.0679 20.717 3.0679 20.3233C3.0679 19.9335 3.2071 19.5994 3.48551 19.321C3.7679 19.0426 4.10597 18.9034 4.49972 18.9034C4.88153 18.9034 5.21563 19.0426 5.50199 19.321C5.78835 19.5994 5.93153 19.9335 5.93153 20.3233C5.93153 20.5858 5.86392 20.8264 5.72869 21.0451C5.59744 21.2599 5.42443 21.4329 5.20966 21.5642C4.99489 21.6915 4.75824 21.7551 4.49972 21.7551ZM6.67628 11.5116V9.38179H16.7109V11.5116H12.9703V21.6H10.4169V11.5116H6.67628ZM17.0142 25.0363V12.4363H19.5199V13.9755H19.6332C19.7446 13.729 19.9057 13.4784 20.1165 13.2238C20.3313 12.9653 20.6097 12.7505 20.9517 12.5795C21.2977 12.4045 21.7273 12.317 22.2403 12.317C22.9085 12.317 23.525 12.492 24.0898 12.842C24.6545 13.188 25.106 13.7111 25.444 14.4111C25.7821 15.1071 25.9511 15.9801 25.9511 17.0301C25.9511 18.0522 25.7861 18.9153 25.456 19.6193C25.1298 20.3193 24.6844 20.8503 24.1196 21.2122C23.5588 21.5701 22.9304 21.7491 22.2344 21.7491C21.7412 21.7491 21.3216 21.6676 20.9756 21.5045C20.6335 21.3415 20.3531 21.1366 20.1344 20.89C19.9156 20.6395 19.7486 20.3869 19.6332 20.1324H19.5557V25.0363H17.0142ZM19.502 17.0182C19.502 17.563 19.5776 18.0383 19.7287 18.444C19.8798 18.8497 20.0986 19.1659 20.3849 19.3926C20.6713 19.6153 21.0193 19.7267 21.429 19.7267C21.8426 19.7267 22.1926 19.6133 22.479 19.3866C22.7653 19.1559 22.9821 18.8378 23.1293 18.4321C23.2804 18.0224 23.356 17.5511 23.356 17.0182C23.356 16.4892 23.2824 16.0238 23.1352 15.6221C22.9881 15.2204 22.7713 14.9062 22.4849 14.6795C22.1986 14.4528 21.8466 14.3395 21.429 14.3395C21.0153 14.3395 20.6653 14.4488 20.379 14.6676C20.0966 14.8863 19.8798 15.1966 19.7287 15.5983C19.5776 16 19.502 16.4733 19.502 17.0182Z" fill="white"/>
</svg>
