<svg width="76" height="76" viewBox="0 0 76 76" fill="none" xmlns="http://www.w3.org/2000/svg">
<circle cx="38" cy="38" r="38" fill="#EAEAEA"/>
<path d="M38 41.75C40.0711 41.75 41.75 40.0711 41.75 38C41.75 35.9289 40.0711 34.25 38 34.25C35.9289 34.25 34.25 35.9289 34.25 38C34.25 40.0711 35.9289 41.75 38 41.75Z" stroke="#6C5CE7" stroke-width="3" stroke-linecap="round" stroke-linejoin="round"/>
<path d="M47.25 41.75C47.0836 42.127 47.034 42.5452 47.1075 42.9507C47.181 43.3562 47.3743 43.7304 47.6625 44.025L47.7375 44.1C47.9699 44.3322 48.1543 44.6079 48.2801 44.9114C48.406 45.2149 48.4707 45.5402 48.4707 45.8688C48.4707 46.1973 48.406 46.5226 48.2801 46.8261C48.1543 47.1296 47.9699 47.4053 47.7375 47.6375C47.5053 47.8699 47.2296 48.0543 46.9261 48.1801C46.6226 48.306 46.2973 48.3707 45.9688 48.3707C45.6402 48.3707 45.3149 48.306 45.0114 48.1801C44.7079 48.0543 44.4322 47.8699 44.2 47.6375L44.125 47.5625C43.8304 47.2743 43.4562 47.081 43.0507 47.0075C42.6452 46.934 42.227 46.9836 41.85 47.15C41.4803 47.3085 41.165 47.5716 40.9429 47.9069C40.7208 48.2423 40.6016 48.6353 40.6 49.0375V49.25C40.6 49.913 40.3366 50.5489 39.8678 51.0178C39.3989 51.4866 38.763 51.75 38.1 51.75C37.437 51.75 36.8011 51.4866 36.3322 51.0178C35.8634 50.5489 35.6 49.913 35.6 49.25V49.1375C35.5903 48.7238 35.4564 48.3225 35.2156 47.9859C34.9749 47.6493 34.6384 47.3929 34.25 47.25C33.873 47.0836 33.4548 47.034 33.0493 47.1075C32.6438 47.181 32.2696 47.3743 31.975 47.6625L31.9 47.7375C31.6678 47.9699 31.3921 48.1543 31.0886 48.2801C30.7851 48.406 30.4598 48.4707 30.1312 48.4707C29.8027 48.4707 29.4774 48.406 29.1739 48.2801C28.8704 48.1543 28.5947 47.9699 28.3625 47.7375C28.1301 47.5053 27.9457 47.2296 27.8199 46.9261C27.694 46.6226 27.6293 46.2973 27.6293 45.9688C27.6293 45.6402 27.694 45.3149 27.8199 45.0114C27.9457 44.7079 28.1301 44.4322 28.3625 44.2L28.4375 44.125C28.7257 43.8304 28.919 43.4562 28.9925 43.0507C29.066 42.6452 29.0164 42.227 28.85 41.85C28.6915 41.4803 28.4284 41.165 28.0931 40.9429C27.7577 40.7208 27.3647 40.6016 26.9625 40.6H26.75C26.087 40.6 25.4511 40.3366 24.9822 39.8678C24.5134 39.3989 24.25 38.763 24.25 38.1C24.25 37.437 24.5134 36.8011 24.9822 36.3322C25.4511 35.8634 26.087 35.6 26.75 35.6H26.8625C27.2762 35.5903 27.6775 35.4564 28.0141 35.2156C28.3507 34.9749 28.6071 34.6384 28.75 34.25C28.9164 33.873 28.966 33.4548 28.8925 33.0493C28.819 32.6438 28.6257 32.2696 28.3375 31.975L28.2625 31.9C28.0301 31.6678 27.8457 31.3921 27.7199 31.0886C27.594 30.7851 27.5293 30.4598 27.5293 30.1312C27.5293 29.8027 27.594 29.4774 27.7199 29.1739C27.8457 28.8704 28.0301 28.5947 28.2625 28.3625C28.4947 28.1301 28.7704 27.9457 29.0739 27.8199C29.3774 27.694 29.7027 27.6293 30.0312 27.6293C30.3598 27.6293 30.6851 27.694 30.9886 27.8199C31.2921 27.9457 31.5678 28.1301 31.8 28.3625L31.875 28.4375C32.1696 28.7257 32.5438 28.919 32.9493 28.9925C33.3548 29.066 33.773 29.0164 34.15 28.85H34.25C34.6197 28.6915 34.935 28.4284 35.1571 28.0931C35.3792 27.7577 35.4984 27.3647 35.5 26.9625V26.75C35.5 26.087 35.7634 25.4511 36.2322 24.9822C36.7011 24.5134 37.337 24.25 38 24.25C38.663 24.25 39.2989 24.5134 39.7678 24.9822C40.2366 25.4511 40.5 26.087 40.5 26.75V26.8625C40.5016 27.2647 40.6208 27.6577 40.8429 27.9931C41.065 28.3284 41.3803 28.5915 41.75 28.75C42.127 28.9164 42.5452 28.966 42.9507 28.8925C43.3562 28.819 43.7304 28.6257 44.025 28.3375L44.1 28.2625C44.3322 28.0301 44.6079 27.8457 44.9114 27.7199C45.2149 27.594 45.5402 27.5293 45.8688 27.5293C46.1973 27.5293 46.5226 27.594 46.8261 27.7199C47.1296 27.8457 47.4053 28.0301 47.6375 28.2625C47.8699 28.4947 48.0543 28.7704 48.1801 29.0739C48.306 29.3774 48.3707 29.7027 48.3707 30.0312C48.3707 30.3598 48.306 30.6851 48.1801 30.9886C48.0543 31.2921 47.8699 31.5678 47.6375 31.8L47.5625 31.875C47.2743 32.1696 47.081 32.5438 47.0075 32.9493C46.934 33.3548 46.9836 33.773 47.15 34.15V34.25C47.3085 34.6197 47.5716 34.935 47.9069 35.1571C48.2423 35.3792 48.6353 35.4984 49.0375 35.5H49.25C49.913 35.5 50.5489 35.7634 51.0178 36.2322C51.4866 36.7011 51.75 37.337 51.75 38C51.75 38.663 51.4866 39.2989 51.0178 39.7678C50.5489 40.2366 49.913 40.5 49.25 40.5H49.1375C48.7353 40.5016 48.3423 40.6208 48.0069 40.8429C47.6716 41.065 47.4085 41.3803 47.25 41.75V41.75Z" stroke="#6C5CE7" stroke-width="3" stroke-linecap="round" stroke-linejoin="round"/>
</svg>
