<svg width="207" height="64" viewBox="0 0 207 64" fill="none" xmlns="http://www.w3.org/2000/svg">
<path d="M80.6392 16.1911V13.9091H91.3906V16.1911H87.3828V27H84.647V16.1911H80.6392ZM96.0331 21.3239V27H93.3101V13.9091H95.9564V18.9141H96.0714C96.293 18.3345 96.651 17.8807 97.1453 17.5526C97.6396 17.2202 98.2597 17.054 99.0054 17.054C99.6872 17.054 100.282 17.2031 100.789 17.5014C101.3 17.7955 101.696 18.2195 101.978 18.7734C102.263 19.3232 102.404 19.9815 102.4 20.7486V27H99.6766V21.2344C99.6808 20.6293 99.5274 20.1584 99.2163 19.8217C98.9095 19.4851 98.4791 19.3168 97.9251 19.3168C97.5544 19.3168 97.2263 19.3956 96.9408 19.5533C96.6595 19.7109 96.4379 19.9411 96.276 20.2436C96.1183 20.5419 96.0374 20.902 96.0331 21.3239ZM109.217 27.1918C108.207 27.1918 107.338 26.9872 106.609 26.5781C105.885 26.1648 105.326 25.581 104.934 24.8267C104.542 24.0682 104.346 23.1712 104.346 22.1357C104.346 21.1257 104.542 20.2393 104.934 19.4766C105.326 18.7138 105.878 18.1193 106.59 17.6932C107.306 17.267 108.145 17.054 109.108 17.054C109.756 17.054 110.359 17.1584 110.917 17.3672C111.48 17.5717 111.97 17.8807 112.387 18.294C112.809 18.7074 113.137 19.2273 113.372 19.8537C113.606 20.4759 113.723 21.2045 113.723 22.0398V22.7876H105.433V21.1001H111.16C111.16 20.7081 111.075 20.3608 110.904 20.0582C110.734 19.7557 110.497 19.5192 110.195 19.3487C109.897 19.174 109.549 19.0866 109.153 19.0866C108.74 19.0866 108.373 19.1825 108.054 19.3743C107.738 19.5618 107.491 19.8153 107.312 20.1349C107.133 20.4503 107.042 20.8018 107.037 21.1896V22.794C107.037 23.2798 107.127 23.6996 107.306 24.0533C107.489 24.407 107.747 24.6797 108.079 24.8714C108.412 25.0632 108.806 25.1591 109.262 25.1591C109.564 25.1591 109.841 25.1165 110.093 25.0312C110.344 24.946 110.559 24.8182 110.738 24.6477C110.917 24.4773 111.054 24.2685 111.147 24.0213L113.666 24.1875C113.538 24.7926 113.276 25.321 112.88 25.7727C112.488 26.2202 111.98 26.5696 111.358 26.821C110.74 27.0682 110.027 27.1918 109.217 27.1918ZM115.7 30.6818V17.1818H118.385V18.831H118.506C118.626 18.5668 118.798 18.2983 119.024 18.0256C119.254 17.7486 119.553 17.5185 119.919 17.3352C120.29 17.1477 120.75 17.054 121.3 17.054C122.016 17.054 122.676 17.2415 123.281 17.6165C123.886 17.9872 124.37 18.5476 124.732 19.2976C125.094 20.0433 125.276 20.9787 125.276 22.1037C125.276 23.1989 125.099 24.1236 124.745 24.8778C124.396 25.6278 123.918 26.1967 123.313 26.5845C122.712 26.968 122.039 27.1598 121.293 27.1598C120.765 27.1598 120.315 27.0724 119.945 26.8977C119.578 26.723 119.278 26.5036 119.043 26.2393C118.809 25.9709 118.63 25.7003 118.506 25.4276H118.423V30.6818H115.7ZM118.366 22.0909C118.366 22.6747 118.447 23.1839 118.609 23.6186C118.771 24.0533 119.005 24.392 119.312 24.6349C119.619 24.8736 119.992 24.9929 120.43 24.9929C120.874 24.9929 121.249 24.8714 121.555 24.6286C121.862 24.3814 122.094 24.0405 122.252 23.6058C122.414 23.1669 122.495 22.6619 122.495 22.0909C122.495 21.5241 122.416 21.0256 122.259 20.5952C122.101 20.1648 121.869 19.8281 121.562 19.5852C121.255 19.3423 120.878 19.2209 120.43 19.2209C119.987 19.2209 119.612 19.3381 119.305 19.5724C119.003 19.8068 118.771 20.1392 118.609 20.5696C118.447 21 118.366 21.5071 118.366 22.0909ZM127.291 27V17.1818H129.931V18.8949H130.033C130.212 18.2855 130.513 17.8253 130.934 17.5142C131.356 17.1989 131.842 17.0412 132.392 17.0412C132.528 17.0412 132.675 17.0497 132.833 17.0668C132.991 17.0838 133.129 17.1072 133.248 17.1371V19.5533C133.12 19.5149 132.944 19.4808 132.718 19.451C132.492 19.4212 132.285 19.4062 132.098 19.4062C131.697 19.4062 131.339 19.4936 131.024 19.6683C130.713 19.8388 130.466 20.0774 130.282 20.3842C130.103 20.6911 130.014 21.0447 130.014 21.4453V27H127.291ZM138.835 27.1918C137.842 27.1918 136.984 26.9808 136.259 26.5589C135.539 26.1328 134.983 25.5405 134.591 24.782C134.199 24.0192 134.003 23.1349 134.003 22.1293C134.003 21.1151 134.199 20.2287 134.591 19.4702C134.983 18.7074 135.539 18.1151 136.259 17.6932C136.984 17.267 137.842 17.054 138.835 17.054C139.828 17.054 140.685 17.267 141.405 17.6932C142.129 18.1151 142.688 18.7074 143.08 19.4702C143.472 20.2287 143.668 21.1151 143.668 22.1293C143.668 23.1349 143.472 24.0192 143.08 24.782C142.688 25.5405 142.129 26.1328 141.405 26.5589C140.685 26.9808 139.828 27.1918 138.835 27.1918ZM138.848 25.0824C139.3 25.0824 139.677 24.9545 139.979 24.6989C140.282 24.4389 140.51 24.0852 140.663 23.6378C140.821 23.1903 140.9 22.6811 140.9 22.1101C140.9 21.5391 140.821 21.0298 140.663 20.5824C140.51 20.1349 140.282 19.7812 139.979 19.5213C139.677 19.2614 139.3 19.1314 138.848 19.1314C138.392 19.1314 138.009 19.2614 137.697 19.5213C137.391 19.7812 137.158 20.1349 137.001 20.5824C136.847 21.0298 136.771 21.5391 136.771 22.1101C136.771 22.6811 136.847 23.1903 137.001 23.6378C137.158 24.0852 137.391 24.4389 137.697 24.6989C138.009 24.9545 138.392 25.0824 138.848 25.0824ZM149.256 27.1598C148.51 27.1598 147.835 26.968 147.23 26.5845C146.629 26.1967 146.152 25.6278 145.798 24.8778C145.449 24.1236 145.274 23.1989 145.274 22.1037C145.274 20.9787 145.455 20.0433 145.817 19.2976C146.179 18.5476 146.661 17.9872 147.262 17.6165C147.867 17.2415 148.53 17.054 149.25 17.054C149.799 17.054 150.258 17.1477 150.624 17.3352C150.995 17.5185 151.293 17.7486 151.519 18.0256C151.749 18.2983 151.924 18.5668 152.043 18.831H152.126V13.9091H154.843V27H152.158V25.4276H152.043C151.915 25.7003 151.734 25.9709 151.5 26.2393C151.27 26.5036 150.969 26.723 150.598 26.8977C150.232 27.0724 149.785 27.1598 149.256 27.1598ZM150.119 24.9929C150.558 24.9929 150.929 24.8736 151.231 24.6349C151.538 24.392 151.772 24.0533 151.934 23.6186C152.101 23.1839 152.184 22.6747 152.184 22.0909C152.184 21.5071 152.103 21 151.941 20.5696C151.779 20.1392 151.544 19.8068 151.238 19.5724C150.931 19.3381 150.558 19.2209 150.119 19.2209C149.672 19.2209 149.294 19.3423 148.988 19.5852C148.681 19.8281 148.449 20.1648 148.291 20.5952C148.133 21.0256 148.054 21.5241 148.054 22.0909C148.054 22.6619 148.133 23.1669 148.291 23.6058C148.453 24.0405 148.685 24.3814 148.988 24.6286C149.294 24.8714 149.672 24.9929 150.119 24.9929ZM163.578 22.8196V17.1818H166.301V27H163.686V25.2166H163.584C163.363 25.7919 162.994 26.2543 162.478 26.6037C161.967 26.9531 161.343 27.1278 160.605 27.1278C159.949 27.1278 159.372 26.9787 158.873 26.6804C158.375 26.3821 157.985 25.9581 157.703 25.4084C157.426 24.8587 157.286 24.2003 157.282 23.4332V17.1818H160.005V22.9474C160.009 23.527 160.164 23.9851 160.471 24.3217C160.778 24.6584 161.189 24.8267 161.705 24.8267C162.033 24.8267 162.34 24.7521 162.625 24.603C162.911 24.4496 163.141 24.2237 163.316 23.9254C163.495 23.6271 163.582 23.2585 163.578 22.8196ZM173.115 27.1918C172.109 27.1918 171.244 26.9787 170.52 26.5526C169.8 26.1222 169.246 25.5256 168.858 24.7628C168.474 24 168.283 23.1222 168.283 22.1293C168.283 21.1236 168.476 20.2415 168.864 19.483C169.256 18.7202 169.812 18.1257 170.533 17.6996C171.253 17.2692 172.109 17.054 173.102 17.054C173.959 17.054 174.709 17.2095 175.352 17.5206C175.996 17.8317 176.505 18.2685 176.88 18.831C177.255 19.3935 177.462 20.054 177.5 20.8125H174.93C174.858 20.3224 174.666 19.9283 174.355 19.63C174.048 19.3274 173.645 19.1761 173.147 19.1761C172.725 19.1761 172.356 19.2912 172.041 19.5213C171.73 19.7472 171.487 20.0774 171.312 20.5121C171.138 20.9467 171.05 21.473 171.05 22.0909C171.05 22.7173 171.136 23.25 171.306 23.6889C171.481 24.1278 171.726 24.4624 172.041 24.6925C172.356 24.9226 172.725 25.0376 173.147 25.0376C173.458 25.0376 173.737 24.9737 173.984 24.8459C174.236 24.718 174.442 24.5327 174.604 24.2898C174.77 24.0426 174.879 23.7464 174.93 23.4013H177.5C177.457 24.1513 177.253 24.8118 176.886 25.3828C176.524 25.9496 176.023 26.3928 175.384 26.7124C174.745 27.032 173.988 27.1918 173.115 27.1918ZM184.666 17.1818V19.2273H178.753V17.1818H184.666ZM180.095 14.8295H182.818V23.983C182.818 24.2344 182.857 24.4304 182.933 24.571C183.01 24.7074 183.117 24.8033 183.253 24.8587C183.394 24.9141 183.556 24.9418 183.739 24.9418C183.867 24.9418 183.994 24.9311 184.122 24.9098C184.25 24.8842 184.348 24.8651 184.416 24.8523L184.845 26.8786C184.708 26.9212 184.516 26.9702 184.269 27.0256C184.022 27.0852 183.722 27.1214 183.368 27.1342C182.712 27.1598 182.136 27.0724 181.642 26.8722C181.152 26.6719 180.771 26.3608 180.498 25.9389C180.225 25.517 180.091 24.9844 180.095 24.3409V14.8295Z" fill="#2D3436"/>
<path d="M89.4261 42H88.1932C88.1203 41.6454 87.9927 41.3338 87.8104 41.0653C87.6314 40.7969 87.4126 40.5715 87.1541 40.3892C86.8989 40.2036 86.6155 40.0644 86.304 39.9716C85.9924 39.8788 85.6676 39.8324 85.3295 39.8324C84.7131 39.8324 84.1546 39.9882 83.6541 40.2997C83.157 40.6113 82.7609 41.0703 82.4659 41.6768C82.1742 42.2834 82.0284 43.0275 82.0284 43.9091C82.0284 44.7907 82.1742 45.5348 82.4659 46.1413C82.7609 46.7479 83.157 47.2069 83.6541 47.5185C84.1546 47.83 84.7131 47.9858 85.3295 47.9858C85.6676 47.9858 85.9924 47.9394 86.304 47.8466C86.6155 47.7538 86.8989 47.6162 87.1541 47.4339C87.4126 47.2483 87.6314 47.0213 87.8104 46.7528C87.9927 46.4811 88.1203 46.1695 88.1932 45.8182H89.4261C89.3333 46.3385 89.1643 46.8042 88.919 47.2152C88.6738 47.6262 88.3688 47.9759 88.0043 48.2642C87.6397 48.5492 87.2304 48.7663 86.7763 48.9155C86.3255 49.0646 85.8433 49.1392 85.3295 49.1392C84.4612 49.1392 83.6889 48.9271 83.0128 48.5028C82.3366 48.0786 81.8047 47.4754 81.4169 46.6932C81.0291 45.911 80.8352 44.983 80.8352 43.9091C80.8352 42.8352 81.0291 41.9072 81.4169 41.125C81.8047 40.3428 82.3366 39.7396 83.0128 39.3153C83.6889 38.8911 84.4612 38.679 85.3295 38.679C85.8433 38.679 86.3255 38.7536 86.7763 38.9027C87.2304 39.0518 87.6397 39.2706 88.0043 39.5589C88.3688 39.844 88.6738 40.192 88.919 40.603C89.1643 41.0107 89.3333 41.4763 89.4261 42ZM94.6117 49.1591C93.9223 49.1591 93.3174 48.995 92.7971 48.6669C92.28 48.3388 91.8757 47.8797 91.584 47.2898C91.2956 46.6998 91.1515 46.0104 91.1515 45.2216C91.1515 44.4261 91.2956 43.7318 91.584 43.1385C91.8757 42.5452 92.28 42.0845 92.7971 41.7564C93.3174 41.4283 93.9223 41.2642 94.6117 41.2642C95.3011 41.2642 95.9043 41.4283 96.4213 41.7564C96.9417 42.0845 97.3461 42.5452 97.6344 43.1385C97.9261 43.7318 98.0719 44.4261 98.0719 45.2216C98.0719 46.0104 97.9261 46.6998 97.6344 47.2898C97.3461 47.8797 96.9417 48.3388 96.4213 48.6669C95.9043 48.995 95.3011 49.1591 94.6117 49.1591ZM94.6117 48.1051C95.1354 48.1051 95.5662 47.9709 95.9043 47.7024C96.2424 47.4339 96.4926 47.081 96.655 46.6435C96.8174 46.206 96.8986 45.732 96.8986 45.2216C96.8986 44.7112 96.8174 44.2356 96.655 43.7947C96.4926 43.3539 96.2424 42.9976 95.9043 42.7259C95.5662 42.4541 95.1354 42.3182 94.6117 42.3182C94.088 42.3182 93.6571 42.4541 93.3191 42.7259C92.981 42.9976 92.7308 43.3539 92.5684 43.7947C92.406 44.2356 92.3248 44.7112 92.3248 45.2216C92.3248 45.732 92.406 46.206 92.5684 46.6435C92.7308 47.081 92.981 47.4339 93.3191 47.7024C93.6571 47.9709 94.088 48.1051 94.6117 48.1051ZM100.113 49V41.3636H101.246V42.5568H101.346C101.505 42.1491 101.762 41.8326 102.116 41.6072C102.471 41.3786 102.897 41.2642 103.394 41.2642C103.898 41.2642 104.317 41.3786 104.652 41.6072C104.99 41.8326 105.254 42.1491 105.442 42.5568H105.522C105.718 42.1624 106.011 41.8492 106.402 41.6172C106.793 41.3819 107.262 41.2642 107.809 41.2642C108.492 41.2642 109.05 41.478 109.484 41.9055C109.919 42.3298 110.136 42.991 110.136 43.8892V49H108.962V43.8892C108.962 43.3258 108.808 42.9231 108.5 42.6811C108.192 42.4392 107.829 42.3182 107.411 42.3182C106.874 42.3182 106.458 42.4806 106.163 42.8054C105.868 43.1269 105.721 43.5346 105.721 44.0284V49H104.528V43.7699C104.528 43.3357 104.387 42.986 104.105 42.7209C103.823 42.4524 103.46 42.3182 103.016 42.3182C102.711 42.3182 102.426 42.3994 102.161 42.5618C101.899 42.7242 101.687 42.9496 101.525 43.2379C101.366 43.523 101.286 43.8527 101.286 44.2273V49H100.113ZM112.531 51.8636V41.3636H113.664V42.5767H113.804C113.89 42.4441 114.009 42.2751 114.162 42.0696C114.317 41.8608 114.539 41.6752 114.828 41.5128C115.119 41.3471 115.514 41.2642 116.011 41.2642C116.654 41.2642 117.221 41.425 117.711 41.7464C118.202 42.0679 118.585 42.5237 118.86 43.1136C119.135 43.7036 119.272 44.3996 119.272 45.2017C119.272 46.0104 119.135 46.7114 118.86 47.3047C118.585 47.8946 118.203 48.352 117.716 48.6768C117.229 48.9983 116.667 49.1591 116.031 49.1591C115.54 49.1591 115.148 49.0779 114.853 48.9155C114.558 48.7498 114.331 48.5625 114.172 48.3537C114.012 48.1416 113.89 47.9659 113.804 47.8267H113.704V51.8636H112.531ZM113.684 45.1818C113.684 45.7585 113.769 46.2673 113.938 46.7081C114.107 47.1456 114.354 47.4886 114.679 47.7372C115.003 47.9825 115.401 48.1051 115.872 48.1051C116.362 48.1051 116.772 47.9759 117.1 47.7173C117.431 47.4555 117.68 47.1042 117.846 46.6634C118.015 46.2192 118.099 45.7254 118.099 45.1818C118.099 44.6449 118.016 44.161 117.85 43.7301C117.688 43.2959 117.441 42.9529 117.11 42.701C116.782 42.4458 116.369 42.3182 115.872 42.3182C115.395 42.3182 114.993 42.4392 114.669 42.6811C114.344 42.9197 114.099 43.2545 113.933 43.6854C113.767 44.1129 113.684 44.6117 113.684 45.1818ZM123.559 49.179C123.075 49.179 122.636 49.0878 122.242 48.9055C121.847 48.7199 121.534 48.4531 121.302 48.1051C121.07 47.7538 120.954 47.3295 120.954 46.8324C120.954 46.3949 121.04 46.0402 121.213 45.7685C121.385 45.4934 121.615 45.2779 121.904 45.1222C122.192 44.9664 122.51 44.8504 122.858 44.7741C123.21 44.6946 123.563 44.6316 123.917 44.5852C124.381 44.5256 124.757 44.4808 125.046 44.451C125.337 44.4179 125.55 44.3632 125.682 44.2869C125.818 44.2107 125.886 44.0781 125.886 43.8892V43.8494C125.886 43.3589 125.752 42.9777 125.483 42.706C125.218 42.4342 124.815 42.2983 124.275 42.2983C123.715 42.2983 123.276 42.4209 122.958 42.6662C122.64 42.9115 122.416 43.1733 122.287 43.4517L121.173 43.054C121.372 42.59 121.637 42.2287 121.968 41.9702C122.303 41.7083 122.668 41.526 123.062 41.4233C123.46 41.3172 123.851 41.2642 124.235 41.2642C124.481 41.2642 124.762 41.294 125.081 41.3537C125.402 41.41 125.712 41.5277 126.01 41.7067C126.312 41.8857 126.562 42.1558 126.761 42.517C126.96 42.8783 127.059 43.3622 127.059 43.9688V49H125.886V47.9659H125.826C125.747 48.1316 125.614 48.3089 125.429 48.4979C125.243 48.6868 124.996 48.8475 124.688 48.9801C124.38 49.1127 124.003 49.179 123.559 49.179ZM123.738 48.125C124.202 48.125 124.593 48.0339 124.912 47.8516C125.233 47.6693 125.475 47.4339 125.637 47.1456C125.803 46.8572 125.886 46.554 125.886 46.2358V45.1619C125.836 45.2216 125.727 45.2763 125.558 45.326C125.392 45.3724 125.2 45.4138 124.981 45.4503C124.766 45.4834 124.555 45.5133 124.35 45.5398C124.148 45.563 123.984 45.5829 123.858 45.5994C123.553 45.6392 123.268 45.7038 123.002 45.7933C122.741 45.8795 122.529 46.0104 122.366 46.1861C122.207 46.3584 122.127 46.5937 122.127 46.892C122.127 47.2997 122.278 47.608 122.58 47.8168C122.885 48.0223 123.271 48.125 123.738 48.125ZM130.624 44.4062V49H129.451V41.3636H130.584V42.5568H130.684C130.863 42.169 131.135 41.8575 131.499 41.6222C131.864 41.3835 132.334 41.2642 132.911 41.2642C133.428 41.2642 133.881 41.3703 134.268 41.5824C134.656 41.7912 134.958 42.1094 135.173 42.5369C135.389 42.9612 135.496 43.4981 135.496 44.1477V49H134.323V44.2273C134.323 43.6274 134.167 43.16 133.856 42.8253C133.544 42.4872 133.117 42.3182 132.573 42.3182C132.198 42.3182 131.864 42.3994 131.569 42.5618C131.277 42.7242 131.047 42.9612 130.878 43.2727C130.709 43.5843 130.624 43.9621 130.624 44.4062ZM138.373 51.8636C138.174 51.8636 137.996 51.8471 137.841 51.8139C137.685 51.7841 137.577 51.7543 137.517 51.7244L137.816 50.6903C138.101 50.7633 138.353 50.7898 138.571 50.7699C138.79 50.75 138.984 50.6522 139.153 50.4766C139.325 50.3042 139.483 50.0241 139.625 49.6364L139.844 49.0398L137.02 41.3636H138.293L140.401 47.4489H140.48L142.588 41.3636H143.861L140.62 50.1136C140.474 50.508 140.293 50.8345 140.078 51.093C139.862 51.3549 139.612 51.5488 139.327 51.6747C139.045 51.8007 138.727 51.8636 138.373 51.8636ZM150.006 49V38.8182H151.239V47.9062H155.972V49H150.006ZM156.221 39.9119V38.8182H163.857V39.9119H160.656V49H159.423V39.9119H156.221ZM169.152 49H166.01V38.8182H169.292C170.279 38.8182 171.124 39.022 171.827 39.4297C172.53 39.834 173.068 40.4157 173.443 41.1747C173.817 41.9304 174.005 42.8352 174.005 43.8892C174.005 44.9498 173.816 45.8629 173.438 46.6286C173.06 47.3909 172.51 47.9775 171.787 48.3885C171.065 48.7962 170.186 49 169.152 49ZM167.243 47.9062H169.073C169.915 47.9062 170.612 47.7438 171.166 47.419C171.719 47.0942 172.132 46.6319 172.404 46.032C172.676 45.4321 172.811 44.7178 172.811 43.8892C172.811 43.0672 172.677 42.3596 172.409 41.7663C172.14 41.1697 171.739 40.7124 171.206 40.3942C170.672 40.0727 170.007 39.9119 169.212 39.9119H167.243V47.9062ZM176.376 49.0795C176.131 49.0795 175.921 48.9917 175.745 48.8161C175.569 48.6404 175.481 48.4299 175.481 48.1847C175.481 47.9394 175.569 47.7289 175.745 47.5533C175.921 47.3776 176.131 47.2898 176.376 47.2898C176.622 47.2898 176.832 47.3776 177.008 47.5533C177.183 47.7289 177.271 47.9394 177.271 48.1847C177.271 48.3471 177.23 48.4962 177.147 48.6321C177.067 48.768 176.96 48.8774 176.824 48.9602C176.691 49.0398 176.542 49.0795 176.376 49.0795Z" fill="#858585"/>
<path d="M7.14205 49.4432C6.01705 49.4432 5.05114 49.0455 4.24432 48.25C3.44886 47.4432 3.05114 46.4773 3.05114 45.3523C3.05114 44.2386 3.44886 43.2841 4.24432 42.4886C5.05114 41.6932 6.01705 41.2955 7.14205 41.2955C8.23295 41.2955 9.1875 41.6932 10.0057 42.4886C10.8239 43.2841 11.233 44.2386 11.233 45.3523C11.233 46.1023 11.0398 46.7898 10.6534 47.4148C10.2784 48.0284 9.78409 48.5227 9.17045 48.8977C8.55682 49.2614 7.88068 49.4432 7.14205 49.4432ZM13.3608 20.1761V14.0909H42.0312V20.1761H31.3438V49H24.0483V20.1761H13.3608ZM42.8977 58.8182V22.8182H50.0568V27.2159H50.3807C50.6989 26.5114 51.1591 25.7955 51.7614 25.0682C52.375 24.3295 53.1705 23.7159 54.1477 23.2273C55.1364 22.7273 56.3636 22.4773 57.8295 22.4773C59.7386 22.4773 61.5 22.9773 63.1136 23.9773C64.7273 24.9659 66.017 26.4602 66.983 28.4602C67.9489 30.4489 68.4318 32.9432 68.4318 35.9432C68.4318 38.8636 67.9602 41.3295 67.017 43.3409C66.0852 45.3409 64.8125 46.858 63.1989 47.892C61.5966 48.9148 59.8011 49.4261 57.8125 49.4261C56.4034 49.4261 55.2045 49.1932 54.2159 48.7273C53.2386 48.2614 52.4375 47.6761 51.8125 46.9716C51.1875 46.2557 50.7102 45.5341 50.3807 44.8068H50.1591V58.8182H42.8977ZM50.0057 35.9091C50.0057 37.4659 50.2216 38.8239 50.6534 39.983C51.0852 41.142 51.7102 42.0455 52.5284 42.6932C53.3466 43.3295 54.3409 43.6477 55.5114 43.6477C56.6932 43.6477 57.6932 43.3239 58.5114 42.6761C59.3295 42.017 59.9489 41.108 60.3693 39.9489C60.8011 38.7784 61.017 37.4318 61.017 35.9091C61.017 34.3977 60.8068 33.0682 60.3864 31.9205C59.9659 30.7727 59.3466 29.875 58.5284 29.2273C57.7102 28.5795 56.7045 28.2557 55.5114 28.2557C54.3295 28.2557 53.3295 28.5682 52.5114 29.1932C51.7045 29.8182 51.0852 30.7045 50.6534 31.8523C50.2216 33 50.0057 34.3523 50.0057 35.9091Z" fill="#6C5CE7"/>
</svg>
